<svg width="164" height="24" viewBox="0 0 164 24" fill="none" xmlns="http://www.w3.org/2000/svg">
<path d="M0.31 23V2H4.15V10.31H13.75V2H17.59V23H13.75V13.91H4.15V23H0.31ZM24.6011 23.3C23.8011 23.3 23.0711 23.125 22.4111 22.775C21.7511 22.415 21.2261 21.9 20.8361 21.23C20.4461 20.56 20.2511 19.75 20.2511 18.8C20.2511 17.95 20.4461 17.225 20.8361 16.625C21.2361 16.015 21.7561 15.51 22.3961 15.11C23.0461 14.7 23.7461 14.38 24.4961 14.15C25.2561 13.91 26.0011 13.735 26.7311 13.625C27.4711 13.515 28.1211 13.45 28.6811 13.43C28.6411 12.57 28.4211 11.945 28.0211 11.555C27.6211 11.165 26.9411 10.97 25.9811 10.97C25.3111 10.97 24.6561 11.065 24.0161 11.255C23.3861 11.435 22.6711 11.72 21.8711 12.11L21.5411 9.08C22.4411 8.64 23.3411 8.31 24.2411 8.09C25.1511 7.87 26.0711 7.76 27.0011 7.76C28.1211 7.76 29.0861 7.96 29.8961 8.36C30.7061 8.76 31.3311 9.405 31.7711 10.295C32.2111 11.175 32.4311 12.34 32.4311 13.79V17.84C32.4311 18.59 32.4661 19.135 32.5361 19.475C32.6061 19.805 32.7361 20.015 32.9261 20.105C33.1161 20.195 33.3911 20.24 33.7511 20.24H34.2311L33.9011 23.3H32.5511C31.9911 23.3 31.4911 23.225 31.0511 23.075C30.6211 22.935 30.2511 22.735 29.9411 22.475C29.6311 22.215 29.3811 21.91 29.1911 21.56C28.7011 22.11 28.0361 22.54 27.1961 22.85C26.3661 23.15 25.5011 23.3 24.6011 23.3ZM26.1611 20.45C26.4911 20.45 26.9011 20.365 27.3911 20.195C27.8811 20.015 28.3211 19.74 28.7111 19.37V15.95C28.0111 15.98 27.3111 16.095 26.6111 16.295C25.9111 16.495 25.3261 16.79 24.8561 17.18C24.3861 17.57 24.1511 18.06 24.1511 18.65C24.1511 19.26 24.3111 19.715 24.6311 20.015C24.9511 20.305 25.4611 20.45 26.1611 20.45ZM43.2625 23.3C41.5425 23.3 40.0975 22.95 38.9275 22.25C37.7675 21.54 36.8875 20.6 36.2875 19.43C35.6975 18.25 35.4025 16.95 35.4025 15.53C35.4025 14.1 35.6975 12.795 36.2875 11.615C36.8775 10.425 37.7625 9.475 38.9425 8.765C40.1225 8.055 41.6025 7.7 43.3825 7.7C44.2225 7.7 44.9825 7.795 45.6625 7.985C46.3425 8.165 46.9225 8.39 47.4025 8.66L47.1025 11.66C46.6425 11.42 46.1225 11.22 45.5425 11.06C44.9725 10.9 44.3725 10.82 43.7425 10.82C42.3025 10.82 41.1875 11.255 40.3975 12.125C39.6075 12.995 39.2125 14.13 39.2125 15.53C39.2125 16.86 39.6175 17.98 40.4275 18.89C41.2375 19.79 42.3325 20.24 43.7125 20.24C44.3025 20.24 44.8825 20.155 45.4525 19.985C46.0325 19.805 46.5925 19.56 47.1325 19.25L47.4625 22.4C46.9425 22.67 46.3125 22.885 45.5725 23.045C44.8425 23.215 44.0725 23.3 43.2625 23.3ZM49.9248 23V0.499998H53.6448V14.15L58.2948 8H62.4948L57.0348 15.2L62.6148 23H58.4148L53.6448 16.34V23H49.9248ZM71.1009 23.3C69.2909 23.3 67.7809 22.94 66.5709 22.22C65.3709 21.49 64.4709 20.53 63.8709 19.34C63.2709 18.14 62.9709 16.83 62.9709 15.41C62.9709 14.04 63.2509 12.775 63.8109 11.615C64.3809 10.455 65.2109 9.525 66.3009 8.825C67.3909 8.115 68.7209 7.76 70.2909 7.76C71.7309 7.76 72.9309 8.055 73.8909 8.645C74.8509 9.235 75.5709 10.025 76.0509 11.015C76.5309 11.995 76.7709 13.08 76.7709 14.27C76.7709 14.6 76.7509 14.935 76.7109 15.275C76.6709 15.605 76.6109 15.95 76.5309 16.31H66.8409C66.9809 17.24 67.2709 17.995 67.7109 18.575C68.1609 19.145 68.7059 19.565 69.3459 19.835C69.9959 20.105 70.6909 20.24 71.4309 20.24C72.3009 20.24 73.1109 20.13 73.8609 19.91C74.6109 19.68 75.3009 19.38 75.9309 19.01L76.1109 22.16C75.5409 22.46 74.8309 22.725 73.9809 22.955C73.1309 23.185 72.1709 23.3 71.1009 23.3ZM66.9309 13.79H72.9909C72.9909 13.34 72.9059 12.89 72.7359 12.44C72.5659 11.98 72.2809 11.595 71.8809 11.285C71.4909 10.975 70.9609 10.82 70.2909 10.82C69.3309 10.82 68.5759 11.1 68.0259 11.66C67.4759 12.22 67.1109 12.93 66.9309 13.79ZM79.3103 23V8H82.7903L82.8803 9.59C83.2603 9.17 83.7953 8.75 84.4853 8.33C85.1753 7.91 85.9303 7.7 86.7503 7.7C86.9903 7.7 87.2103 7.72 87.4103 7.76L87.1403 11.42C86.9203 11.36 86.7003 11.32 86.4803 11.3C86.2703 11.28 86.0603 11.27 85.8503 11.27C85.2203 11.27 84.6453 11.415 84.1253 11.705C83.6053 11.995 83.2403 12.35 83.0303 12.77V23H79.3103Z" fill="white"/>
<path d="M89.7827 23V2H93.5627L102.533 15.56V2H106.373V23H103.223L93.6227 8.6V23H89.7827ZM117.243 23.3C115.433 23.3 113.923 22.94 112.713 22.22C111.513 21.49 110.613 20.53 110.013 19.34C109.413 18.14 109.113 16.83 109.113 15.41C109.113 14.04 109.393 12.775 109.953 11.615C110.523 10.455 111.353 9.525 112.443 8.825C113.533 8.115 114.863 7.76 116.433 7.76C117.873 7.76 119.073 8.055 120.033 8.645C120.993 9.235 121.713 10.025 122.193 11.015C122.673 11.995 122.913 13.08 122.913 14.27C122.913 14.6 122.893 14.935 122.853 15.275C122.813 15.605 122.753 15.95 122.673 16.31H112.983C113.123 17.24 113.413 17.995 113.853 18.575C114.303 19.145 114.848 19.565 115.488 19.835C116.138 20.105 116.833 20.24 117.573 20.24C118.443 20.24 119.253 20.13 120.003 19.91C120.753 19.68 121.443 19.38 122.073 19.01L122.253 22.16C121.683 22.46 120.973 22.725 120.123 22.955C119.273 23.185 118.313 23.3 117.243 23.3ZM113.073 13.79H119.133C119.133 13.34 119.048 12.89 118.878 12.44C118.708 11.98 118.423 11.595 118.023 11.285C117.633 10.975 117.103 10.82 116.433 10.82C115.473 10.82 114.718 11.1 114.168 11.66C113.618 12.22 113.253 12.93 113.073 13.79ZM128.393 23L124.013 8H127.643L130.223 18.47L133.043 8.3H136.163L138.953 18.47L141.563 8H145.193L140.813 23H137.693L134.603 13.22L131.513 23H128.393ZM151.48 23.3C150.49 23.3 149.595 23.205 148.795 23.015C148.005 22.825 147.21 22.55 146.41 22.19L146.74 19.01C147.51 19.46 148.265 19.825 149.005 20.105C149.755 20.375 150.54 20.51 151.36 20.51C152.1 20.51 152.665 20.39 153.055 20.15C153.445 19.91 153.64 19.53 153.64 19.01C153.64 18.62 153.535 18.3 153.325 18.05C153.125 17.8 152.82 17.575 152.41 17.375C152 17.175 151.49 16.96 150.88 16.73C149.96 16.39 149.175 16.02 148.525 15.62C147.885 15.22 147.395 14.74 147.055 14.18C146.725 13.61 146.56 12.91 146.56 12.08C146.56 11.22 146.785 10.46 147.235 9.8C147.685 9.14 148.325 8.625 149.155 8.255C149.985 7.885 150.97 7.7 152.11 7.7C153.06 7.7 153.91 7.805 154.66 8.015C155.42 8.225 156.12 8.51 156.76 8.87L156.43 12.05C155.76 11.58 155.085 11.195 154.405 10.895C153.725 10.585 152.98 10.43 152.17 10.43C151.53 10.43 151.035 10.56 150.685 10.82C150.335 11.08 150.16 11.45 150.16 11.93C150.16 12.51 150.405 12.945 150.895 13.235C151.385 13.525 152.17 13.88 153.25 14.3C153.95 14.57 154.555 14.85 155.065 15.14C155.585 15.43 156.015 15.75 156.355 16.1C156.695 16.45 156.945 16.85 157.105 17.3C157.275 17.74 157.36 18.25 157.36 18.83C157.36 19.78 157.13 20.59 156.67 21.26C156.22 21.92 155.555 22.425 154.675 22.775C153.805 23.125 152.74 23.3 151.48 23.3ZM159.546 23V18.92H163.446V23H159.546Z" fill="#00A19D"/>
</svg>
